<?xml version="1.0" encoding="utf-8"?>
<svg version="1.1" id="Camada_1" xmlns="http://www.w3.org/2000/svg" xmlns:xlink="http://www.w3.org/1999/xlink" x="0px" y="0px"
	 viewBox="0 0 578 578" style="enable-background:new 0 0 578 578;" xml:space="preserve">
<path d="M350.8,385.6c0.1-0.3,0.2-0.7,0.2-1c0,0.1-0.1,0.2-0.1,0.3C350.9,385.1,350.9,385.3,350.8,385.6z M567.4,299.9
	c-6-6-14.2-9.4-22.8-9.4h-12.7c-1.1-57.6-24-112.7-64-154.1C427.8,94.9,373.6,70.3,316,67.3c4.1-3,7-7.4,8-12.4l3.3-16.2
	c0.6-2.9,0.5-5.9-0.2-8.8c-0.7-2.9-2.1-5.6-4-7.9c-1.9-2.3-4.3-4.2-6.9-5.4c-2.7-1.3-5.6-1.9-8.6-1.9h-37.2c-3,0-5.9,0.7-8.6,1.9
	c-2.7,1.3-5,3.1-6.9,5.4c-1.9,2.3-3.2,5-4,7.9c-0.7,2.9-0.8,5.9-0.2,8.8l3.3,16.2c1,5,3.9,9.4,8.1,12.4
	c-57.6,3-111.8,27.6-151.9,69.1s-63,96.5-64,154.1H33.4c-8.6,0-16.7,3.4-22.8,9.4c-6,6-9.4,14.2-9.4,22.8c0,8.6,3.4,16.7,9.4,22.8
	c6,6,14.2,9.4,22.8,9.4h122.7c-36.5,8-67,52.1-76.5,67.1c-5.5-2.7-11.7-3.3-17.6-1.7c-5.9,1.5-11.1,5.1-14.6,10l-15.2,21.5
	c-3.9,5.6-5.5,12.5-4.3,19.2c1.1,6.7,4.9,12.7,10.5,16.6l100.6,71c4.2,3,9.3,4.6,14.5,4.7c1.5,0,3.1-0.1,4.6-0.4
	c3.3-0.6,6.5-1.8,9.4-3.6c2.9-1.8,5.3-4.1,7.3-6.9L190,531c3.4-4.8,5-10.6,4.6-16.5c-0.4-5.9-2.8-11.4-6.8-15.8
	c21.8-22.1,40-20,62.6-17.4c4.5,0.5,9,1,13.7,1.4l3.3,0.3c28.5,2.1,51.1,3.8,101.7-6.3c49.7-9.8,95-50.9,114.4-68.5
	c1.6-1.4,2.9-2.7,4.1-3.7c14.1-12.6,18.4-30,10.1-41.5c-3-4.1-7.3-6.9-12.2-8.1h59c8.6,0,16.7-3.4,22.8-9.4c6-6,9.4-14.2,9.4-22.8
	C576.8,314.1,573.4,305.9,567.4,299.9z M485.2,377.2c0,0.3-0.1,0.6-0.1,0.9c0,0,0,0.1,0,0.1c0,0.4-0.1,0.8-0.2,1.3c0,0,0,0.1,0,0.1
	c-0.1,0.3-0.2,0.6-0.3,0.9c-0.1,0.3-0.2,0.5-0.3,0.8c-0.4,1.2-1,2.4-1.8,3.7c-0.2,0.3-0.4,0.6-0.6,1c-0.4,0.7-0.9,1.3-1.5,2
	c-0.3,0.3-0.5,0.7-0.8,1c0,0.1-0.1,0.1-0.2,0.2c-0.2,0.3-0.5,0.5-0.7,0.8h0c0,0.1-0.1,0.1-0.1,0.1c-0.3,0.3-0.6,0.6-0.9,0.9
	c-0.4,0.3-0.7,0.7-1.1,1l-4.2,3.8c-18.3,16.7-61.3,55.6-106.4,64.5c-48.4,9.7-68.9,8.1-97.2,6l-3.4-0.2c-4.4-0.3-8.8-0.8-13-1.3
	c-24.5-2.7-49.8-5.5-77.9,23.9l-81.1-57.2c0.4-0.6,0.8-1.3,1.2-1.9c0.2-0.3,0.4-0.7,0.7-1c0.2-0.3,0.4-0.7,0.7-1
	c0.9-1.4,1.9-2.9,3-4.4c0.5-0.7,1.1-1.5,1.6-2.3c1.1-1.5,2.3-3.2,3.5-4.8c0.6-0.8,1.3-1.7,1.9-2.5c0.6-0.7,1.2-1.5,1.8-2.2
	c0-0.1,0.1-0.1,0.1-0.1c0.3-0.3,0.5-0.6,0.7-0.9c0.1-0.2,0.3-0.3,0.4-0.5c0.3-0.4,0.7-0.9,1-1.3h0c0.1-0.1,0.1-0.2,0.2-0.2
	c0-0.1,0.1-0.1,0.1-0.1c0.6-0.7,1.2-1.4,1.8-2.1c0.7-0.8,1.5-1.7,2.2-2.5c2.2-2.5,4.6-5,7-7.4c13.6-13.8,29.9-25.4,45.7-25.6
	c25.1-0.4,51.7,5.7,69.5,10.8c12.9,3.7,27.9,7.3,43,2.9c17.2-4.8,34.6-8.6,52.3-11.3l0.1,0l5.3-0.9c4.9-0.8,8.5-0.1,10.9,2.1
	c0.2,0.1,0.3,0.3,0.5,0.5c0.3,0.3,0.5,0.6,0.7,0.9c0.2,0.3,0.4,0.6,0.5,0.9c0.1,0.1,0.2,0.3,0.2,0.5c0.1,0.1,0.1,0.2,0.2,0.3
	c0,0,0,0.1,0.1,0.1c0,0.1,0.1,0.2,0.1,0.4c0.1,0.2,0.1,0.4,0.2,0.5c0.1,0.2,0.1,0.5,0.2,0.7c0.1,0.2,0.1,0.5,0.2,0.7
	c0.1,0.2,0.1,0.5,0.1,0.7c0,0.2,0.1,0.5,0.1,0.7c0.1,0.7,0.1,1.4,0.1,2.1c0,0.1,0,0.3,0,0.4c0,0.1,0,0.3,0,0.4
	c0,0.2-0.1,0.4-0.1,0.6c0,0.1,0,0.2,0,0.3c0,0.1,0,0.2-0.1,0.2c0,0.2-0.1,0.5-0.1,0.7c0,0.2-0.1,0.3-0.1,0.5c0,0.1-0.1,0.3-0.1,0.4
	c-0.1,0.4-0.3,0.7-0.4,1c-0.1,0.2-0.2,0.4-0.3,0.6c-0.2,0.3-0.3,0.7-0.6,1c-0.1,0.1-0.2,0.3-0.3,0.4c0,0,0,0.1-0.1,0.1
	c-0.1,0.1-0.2,0.2-0.3,0.3c-0.1,0.1-0.2,0.2-0.3,0.3c-7.5,6.6-20.1,15.1-30.1,17.9c-2,0.5-3.7,1.8-4.8,3.5c-0.7,1.1-1.1,2.3-1.3,3.5
	c0,0.1,0,0.3-0.1,0.5v0.1c-0.1,0.6,0,1.2,0.1,1.8c0.3,2,1.3,3.9,2.9,5.2c0.2,0.1,0.4,0.3,0.6,0.4c0.2,0.1,0.4,0.3,0.6,0.4
	c1.3,0.8,2.9,1.1,4.4,1.1l35.5-1.1c2.9,0,5.9-0.5,8.7-1.4l40.9-13.4c1.1-0.4,2.2-0.8,3.3-1.2c1.6-0.7,3.2-1.4,4.7-2.2h0
	c1-0.6,2-1.1,3-1.8c0.5-0.3,1-0.7,1.5-1c0.2-0.1,0.5-0.3,0.7-0.5c0.7-0.5,1.4-0.9,2.2-1.5c0,0,0,0,0,0c1.3-0.9,2.8-1.8,4.3-2.7
	c7.2-4.4,16.7-9.9,26-15.3l10.5-6c0.9-0.5,1.8-1,2.7-1.5c0.8-0.4,1.6-0.8,2.4-1.2c0.4-0.2,0.9-0.4,1.3-0.6c0.4-0.2,0.8-0.3,1.2-0.5
	c0.8-0.3,1.5-0.6,2.2-0.8l1-0.3c0.1,0,0.2-0.1,0.3-0.1c0.5-0.1,1.1-0.3,1.6-0.4c1.1-0.2,2.2-0.4,3.1-0.4c0.3,0,0.5,0,0.8,0
	c2.8,0,4.8,0.8,5.7,2.1c0.6,0.8,0.9,1.9,1,3.2C485.3,376.4,485.3,376.8,485.2,377.2z M453.5,362.1c-3.3,2-6.8,4-10.4,6
	c-13.2,7.6-26.9,15.5-34.4,20.7c-2.5,1.8-5.2,3.1-8.2,4.1l-41,13.3c-0.3,0.1-0.6,0.2-0.9,0.2c-0.6,0.1-1.2,0.2-1.8,0.3
	c-0.4,0-0.8,0-1.2,0h-1.1c1.8-1.4,3.4-2.8,4.8-4.1c0.3-0.3,0.7-0.6,1-0.9c0.3-0.3,0.6-0.6,0.9-0.9c0.3-0.4,0.7-0.8,0.9-1.2
	c0.1-0.1,0.2-0.2,0.3-0.3c0.1-0.1,0.2-0.3,0.3-0.4c0.3-0.4,0.6-0.8,0.8-1.2c0.2-0.4,0.5-0.7,0.7-1.1c0.7-1.1,1.2-2.3,1.7-3.6
	c0,0,0,0,0,0c2.8-7.3,2.6-16.1-1-23.6c-1.4-2.9-3.2-5.3-5.3-7.4c-0.5-0.5-1-0.9-1.5-1.3c-0.2-0.2-0.4-0.3-0.6-0.5
	c-0.3-0.3-0.7-0.5-1-0.7c-0.3-0.2-0.5-0.3-0.8-0.5c-0.3-0.2-0.6-0.4-0.9-0.5c-0.3-0.2-0.6-0.4-1-0.5c-0.2-0.1-0.3-0.2-0.5-0.2
	c-0.5-0.3-1-0.5-1.5-0.7c-0.5-0.2-1.1-0.4-1.6-0.6c-0.6-0.2-1.1-0.4-1.7-0.5c0,0,0,0-0.1,0c-0.6-0.1-1.1-0.3-1.7-0.4
	c-0.6-0.1-1.2-0.2-1.8-0.3c-0.6-0.1-1.2-0.2-1.9-0.2c-0.1,0-0.1,0-0.2,0h128.1C464.9,356.4,459,358.8,453.5,362.1z M338.5,355
	L338.5,355c-0.6,0-1.1,0.1-1.5,0.1c-0.4,0-0.8,0.1-1.2,0.1c-0.2,0-0.4,0.1-0.6,0.1c-0.3,0-0.6,0.1-0.9,0.1l-5.3,0.9
	c-18.3,2.8-36.4,6.7-54.2,11.7c-2.5,0.7-5,1.1-7.6,1.3c-1.3,0.1-2.6,0.1-3.9,0.1c-0.9,0-1.9-0.1-2.8-0.2h0
	c-6.6-0.6-13.2-2.3-19.4-4.1c-16.5-4.8-33.3-8.2-50.3-10.2h148.9C339.3,354.9,338.9,354.9,338.5,355z M63.7,289.5
	C65,234.9,87.5,183,126.6,144.7c39.2-38.5,92-60.1,146.9-60.2h31c55,0.1,107.7,21.7,146.9,60.2c39,38.3,61.5,90.2,62.9,144.9H63.7z
	 M351,384.9c0,0.2-0.1,0.5-0.1,0.7c0.1-0.3,0.2-0.7,0.2-1C351,384.7,351,384.8,351,384.9z"/>
</svg>
