<?xml version="1.0" encoding="utf-8"?>
<svg version="1.1" id="Camada_1" xmlns="http://www.w3.org/2000/svg" xmlns:xlink="http://www.w3.org/1999/xlink" x="0px" y="0px"
	 viewBox="0 0 583 583" style="enable-background:new 0 0 583 583;" xml:space="preserve">
<path d="M92.8,522.8L92.8,522.8C92.8,522.8,92.8,522.9,92.8,522.8C92.8,522.9,92.8,522.8,92.8,522.8z M406.2,441.5
	c0.1-1.7,0.2-3.3,0.2-5C406.4,438.1,406.4,439.8,406.2,441.5z M406.2,441.5c0.1-1.7,0.2-3.3,0.2-5
	C406.4,438.1,406.4,439.8,406.2,441.5z M406.2,441.5c0.1-1.7,0.2-3.3,0.2-5C406.4,438.1,406.4,439.8,406.2,441.5z M406.2,441.5
	c0.1-1.7,0.2-3.3,0.2-5C406.4,438.1,406.4,439.8,406.2,441.5z M319.5,197.9c-0.1-0.7-0.2-1.3-0.5-1.9c-0.1-0.1-0.1-0.3-0.2-0.4
	c-0.3-0.8-0.9-1.5-1.5-2c-1.2-1.1-2.8-1.6-4.4-1.5c-1.6,0.1-3.1,0.8-4.2,1.9c-0.3,0.3-0.5,0.6-0.7,1c-0.4,0.7-0.7,1.4-0.8,2.1
	c0,0.2-0.1,0.5-0.1,0.7v0.1c0,0.2-0.1,0.3-0.1,0.5l2.4,51.7c0,0.2,0,0.4,0.1,0.6c0.1,0.4,0.1,0.8,0.3,1.2c0.1,0.2,0.2,0.4,0.3,0.6
	c0,0.1,0.1,0.1,0.1,0.2c0.3,0.6,0.7,1.2,1.2,1.7c0.4,0.4,0.9,0.8,1.5,1c0.2,0.1,0.4,0.2,0.6,0.2c0.2,0.1,0.3,0.1,0.5,0.2
	c0.2,0.1,0.4,0.1,0.6,0.1c0.2,0,0.4,0.1,0.6,0.1c0.2,0,0.4,0.1,0.7,0.1h0.3l0,0l0,0c0.2,0,0.4,0,0.6-0.1c0.6-0.1,1.2-0.2,1.8-0.5
	c0.2-0.1,0.4-0.2,0.5-0.3c0.5-0.3,1-0.7,1.4-1.1c0.6-0.6,1-1.3,1.3-2.1c0.3-0.8,0.4-1.6,0.4-2.4L319.5,197.9z M371.9,197.3
	L371.9,197.3c0-0.2,0-0.5-0.1-0.7c-0.2-1.2-0.8-2.3-1.7-3.2c-1.2-1.2-2.7-1.8-4.4-1.8c-1.6,0-3.2,0.6-4.4,1.8
	c-0.9,0.9-1.5,2-1.7,3.2c-0.1,0.2-0.1,0.5-0.1,0.7v0c0,0.1,0,0.3,0,0.4v0.1l-0.1,51.7v0.2c0,0.2,0,0.3,0,0.5c0,0.2,0,0.3,0.1,0.5
	c0,0.1,0,0.1,0.1,0.2c0,0.2,0,0.4,0.1,0.5c0.1,0.4,0.2,0.7,0.4,1c0.2,0.5,0.6,1,1,1.4v0c1.1,1.2,2.6,1.8,4.2,1.9h0.4
	c0.2,0,0.5,0,0.7-0.1c0.6,0,1.2-0.2,1.7-0.4c0.7-0.3,1.4-0.7,2-1.3c0.6-0.6,1-1.2,1.3-2c0.3-0.7,0.5-1.5,0.5-2.4v-52
	C371.9,197.7,371.9,197.5,371.9,197.3z M415.5,198c0-1.6-0.7-3.2-1.8-4.4c-1.2-1.2-2.7-1.8-4.4-1.8c-1.7,0-3.2,0.6-4.4,1.8
	c-1.2,1.2-1.8,2.7-1.8,4.4l0.1,51.8c0,0.8,0.2,1.6,0.5,2.4c0.3,0.7,0.8,1.4,1.4,2c0.6,0.6,1.3,1,2,1.3c0.7,0.3,1.5,0.5,2.4,0.5h0.3
	c1.6-0.1,3.1-0.8,4.2-1.9c1.1-1.1,1.7-2.7,1.7-4.3L415.5,198z M415.8,301.5c0-0.8-0.1-1.7-0.4-2.5c-0.3-0.8-0.7-1.5-1.3-2.1
	c-0.6-0.6-1.3-1.1-2-1.4c-0.8-0.3-1.6-0.5-2.4-0.5c-0.8,0-1.7,0.2-2.4,0.5c-0.8,0.3-1.5,0.8-2,1.4c-0.6,0.6-1,1.3-1.3,2.1
	c-0.3,0.8-0.4,1.6-0.4,2.5l0.1,51.8h0c0,0.8,0.1,1.6,0.4,2.4c0.3,0.7,0.8,1.4,1.3,2c0.6,0.6,1.3,1,2,1.3c0.7,0.3,1.5,0.5,2.4,0.5
	h0.3c1.6-0.1,3.1-0.8,4.2-1.9c1.1-1.1,1.7-2.7,1.7-4.3L415.8,301.5z M458.3,402.9c-0.3-0.8-0.7-1.5-1.2-2.1c-0.6-0.6-1.2-1.1-2-1.5
	c-0.7-0.4-1.5-0.6-2.4-0.6c-0.8,0-1.6,0.1-2.4,0.4c-0.8,0.3-1.5,0.7-2.1,1.3c-0.6,0.6-1.1,1.2-1.4,2c-0.3,0.8-0.5,1.6-0.5,2.4
	l-2.4,51.7c0,0.8,0.1,1.6,0.4,2.4c0.3,0.8,0.7,1.5,1.2,2.1c0.6,0.6,1.2,1.1,1.9,1.4c0.7,0.4,1.5,0.6,2.3,0.6h0.3
	c1.6,0,3.1-0.6,4.3-1.7c1.1-1.1,1.8-2.6,1.9-4.2l2.4-51.7C458.7,404.5,458.6,403.6,458.3,402.9z M463,299.4
	c-0.3-0.8-0.7-1.5-1.2-2.1c-0.6-0.6-1.2-1.1-2-1.5c-0.7-0.4-1.6-0.6-2.4-0.6c-0.8,0-1.7,0.1-2.4,0.4c-0.8,0.3-1.5,0.7-2.1,1.3
	c-0.6,0.6-1.1,1.2-1.4,2c-0.3,0.8-0.5,1.6-0.5,2.4l-2.4,51.7c0,0.8,0.1,1.6,0.4,2.4c0.3,0.8,0.7,1.5,1.2,2.1
	c0.6,0.6,1.2,1.1,1.9,1.4c0.7,0.3,1.5,0.5,2.3,0.6h0.3c1.6,0,3.1-0.6,4.3-1.7c1.2-1.1,1.8-2.6,1.9-4.2l2.3-51.7
	C463.4,301,463.3,300.2,463,299.4z M466.5,193.9c-1.1-1.2-2.7-1.9-4.3-2c-1.6-0.1-3.2,0.5-4.4,1.6c-1.2,1.1-1.9,2.7-2,4.3l-2.4,51.7
	c-0.1,1.6,0.5,3.2,1.6,4.4c1.1,1.2,2.6,1.9,4.3,2h0.3c1.6,0,3.1-0.6,4.3-1.7c1.1-1.1,1.8-2.6,1.9-4.2l2.4-51.7
	C468.2,196.7,467.6,195.1,466.5,193.9z M112.6,547.3L112.6,547.3C112.7,547.3,112.7,547.3,112.6,547.3
	C112.7,547.3,112.7,547.3,112.6,547.3z M92.8,522.8L92.8,522.8C92.8,522.8,92.8,522.8,92.8,522.8L92.8,522.8z M406.2,441.5
	c0.1-1.7,0.2-3.3,0.2-5C406.4,438.1,406.4,439.8,406.2,441.5z M466.5,193.9c-1.1-1.2-2.7-1.9-4.3-2c-1.6-0.1-3.2,0.5-4.4,1.6
	c-1.2,1.1-1.9,2.7-2,4.3l-2.4,51.7c-0.1,1.6,0.5,3.2,1.6,4.4c1.1,1.2,2.6,1.9,4.3,2h0.3c1.6,0,3.1-0.6,4.3-1.7
	c1.1-1.1,1.8-2.6,1.9-4.2l2.4-51.7C468.2,196.7,467.6,195.1,466.5,193.9z M461.8,297.3c-0.6-0.6-1.2-1.1-2-1.5
	c-0.7-0.4-1.6-0.6-2.4-0.6c-0.8,0-1.7,0.1-2.4,0.4c-0.8,0.3-1.5,0.7-2.1,1.3c-0.6,0.6-1.1,1.2-1.4,2c-0.3,0.8-0.5,1.6-0.5,2.4
	l-2.4,51.7c0,0.8,0.1,1.6,0.4,2.4c0.3,0.8,0.7,1.5,1.2,2.1c0.6,0.6,1.2,1.1,1.9,1.4c0.7,0.3,1.5,0.5,2.3,0.6h0.3
	c1.6,0,3.1-0.6,4.3-1.7c1.2-1.1,1.8-2.6,1.9-4.2l2.3-51.7c0.1-0.8,0-1.7-0.3-2.4C462.8,298.6,462.4,297.9,461.8,297.3z M457.1,400.7
	c-0.6-0.6-1.2-1.1-2-1.5c-0.7-0.4-1.5-0.6-2.4-0.6c-0.8,0-1.6,0.1-2.4,0.4c-0.8,0.3-1.5,0.7-2.1,1.3c-0.6,0.6-1.1,1.2-1.4,2
	c-0.3,0.8-0.5,1.6-0.5,2.4l-2.4,51.7c0,0.8,0.1,1.6,0.4,2.4c0.3,0.8,0.7,1.5,1.2,2.1c0.6,0.6,1.2,1.1,1.9,1.4
	c0.7,0.4,1.5,0.6,2.3,0.6h0.3c1.6,0,3.1-0.6,4.3-1.7c1.1-1.1,1.8-2.6,1.9-4.2l2.4-51.7c0.1-0.8,0-1.7-0.3-2.4
	C458,402.1,457.6,401.3,457.1,400.7z M415.4,299c-0.3-0.8-0.7-1.5-1.3-2.1c-0.6-0.6-1.3-1.1-2-1.4c-0.8-0.3-1.6-0.5-2.4-0.5
	c-0.8,0-1.7,0.2-2.4,0.5c-0.8,0.3-1.5,0.8-2,1.4c-0.6,0.6-1,1.3-1.3,2.1c-0.3,0.8-0.4,1.6-0.4,2.5l0.1,51.8h0c0,0.8,0.1,1.6,0.4,2.4
	c0.3,0.7,0.8,1.4,1.3,2c0.6,0.6,1.3,1,2,1.3c0.7,0.3,1.5,0.5,2.4,0.5h0.3c1.6-0.1,3.1-0.8,4.2-1.9c1.1-1.1,1.7-2.7,1.7-4.3
	l-0.1-51.8C415.8,300.7,415.7,299.8,415.4,299z M405.1,254.1c0.6,0.6,1.3,1,2,1.3c0.7,0.3,1.5,0.5,2.4,0.5h0.3
	c1.6-0.1,3.1-0.8,4.2-1.9c1.1-1.1,1.7-2.7,1.7-4.3l-0.1-51.8c0-1.6-0.7-3.2-1.8-4.4c-1.2-1.2-2.7-1.8-4.4-1.8
	c-1.7,0-3.2,0.6-4.4,1.8c-1.2,1.2-1.8,2.7-1.8,4.4l0.1,51.8c0,0.8,0.2,1.6,0.5,2.4C404.1,252.9,404.5,253.5,405.1,254.1z
	 M371.9,197.3c0-0.2,0-0.5-0.1-0.7c-0.2-1.2-0.8-2.3-1.7-3.2c-1.2-1.2-2.7-1.8-4.4-1.8c-1.6,0-3.2,0.6-4.4,1.8
	c-0.9,0.9-1.5,2-1.7,3.2c-0.1,0.2-0.1,0.5-0.1,0.7v0c0,0.1,0,0.3,0,0.4v0.1l-0.1,51.7v0.2c0,0.2,0,0.3,0,0.5c0,0.2,0,0.3,0.1,0.5
	c0,0.1,0,0.1,0.1,0.2c0,0.2,0,0.4,0.1,0.5c0.1,0.4,0.2,0.7,0.4,1c0.2,0.5,0.6,1,1,1.4v0c1.1,1.2,2.6,1.8,4.2,1.9h0.4
	c0.2,0,0.5,0,0.7-0.1c0.6,0,1.2-0.2,1.7-0.4c0.7-0.3,1.4-0.7,2-1.3c0.6-0.6,1-1.2,1.3-2c0.3-0.7,0.5-1.5,0.5-2.4v-52
	C371.9,197.7,371.9,197.5,371.9,197.3L371.9,197.3z M319,196c-0.1-0.1-0.1-0.3-0.2-0.4c-0.3-0.8-0.9-1.5-1.5-2
	c-1.2-1.1-2.8-1.6-4.4-1.5c-1.6,0.1-3.1,0.8-4.2,1.9c-0.3,0.3-0.5,0.6-0.7,1c-0.4,0.7-0.7,1.4-0.8,2.1c0,0.2-0.1,0.5-0.1,0.7v0.1
	c0,0.2-0.1,0.3-0.1,0.5l2.4,51.7c0,0.2,0,0.4,0.1,0.6c0.1,0.4,0.1,0.8,0.3,1.2c0.1,0.2,0.2,0.4,0.3,0.6c0,0.1,0.1,0.1,0.1,0.2
	c0.3,0.6,0.7,1.2,1.2,1.7c0.4,0.4,0.9,0.8,1.5,1c0.2,0.1,0.4,0.2,0.6,0.2c0.2,0.1,0.3,0.1,0.5,0.2c0.2,0.1,0.4,0.1,0.6,0.1
	c0.2,0,0.4,0.1,0.6,0.1c0.2,0,0.4,0.1,0.7,0.1h0.3l0,0l0,0c0.2,0,0.4,0,0.6-0.1c0.6-0.1,1.2-0.2,1.8-0.5c0.2-0.1,0.4-0.2,0.5-0.3
	c0.5-0.3,1-0.7,1.4-1.1c0.6-0.6,1-1.3,1.3-2.1c0.3-0.8,0.4-1.6,0.4-2.4l-2.4-51.7C319.4,197.2,319.3,196.6,319,196z M541.4,76.3
	c-0.4-1.1-1-2.1-1.8-3c-0.8-0.9-1.7-1.6-2.8-2.1c-1-0.5-2.2-0.7-3.4-0.7h-15l11.3-46.7c0.6-2.7,0.2-5.5-1.2-7.9
	c-1.4-2.4-3.8-4.1-6.4-4.7L477,0.3c-2.7-0.7-5.5-0.2-7.9,1.2c-2.4,1.4-4.1,3.8-4.7,6.4l-15.2,62.5H241.8c-1.2,0-2.4,0.2-3.5,0.7
	c-1.1,0.5-2,1.2-2.8,2.1c-0.8,0.9-1.4,1.9-1.8,3c-0.4,1.1-0.5,2.3-0.4,3.5l6.5,69.5l1.6,17.7l9,98c-10.6,7.5-20.5,15.8-29.7,24.8
	c-6.2-5.5-12.7-10.6-19.4-15.3c-1.7-1.2-3.7-1.7-5.7-1.5c-2,0.2-3.9,1.1-5.3,2.6l-48.9,50.6l-2.5-2.4c-1.6-1.5-3.7-2.4-6-2.4h-0.1
	c-2.3,0-4.4,0.9-6,2.6l-77.6,79.5l-0.1,0.1c-0.2,0.3-0.5,0.5-0.7,0.8c-0.1,0.1-0.2,0.3-0.3,0.4v0.1l-0.3,0.5l-0.3,0.6
	c-0.1,0.1-0.1,0.3-0.2,0.4c-4.2,9.5-6.3,19.8-6.2,30.1c0,15.9,4.3,33.6,12.7,52.7c1,2.2,2,4.4,3.1,6.6c1.6,3.5,3.5,7,5.4,10.5
	c15.9,28,36.2,53.2,60.1,74.6c1.6,1.4,3.6,2.2,5.7,2.2h359.5c2.1,0,4.2-0.8,5.8-2.2c1.6-1.4,2.6-3.4,2.7-5.5l5.1-55l1.1-12.3
	l31.9-345.4l1.4-15.6l6.1-67.2C541.9,78.6,541.8,77.4,541.4,76.3z M466.7,87.7l4.1-17.1l11.5-47.4l24.5,5.8l-10.1,41.3l-4.2,17.1
	l-14.8,60.9c-0.3-0.3-0.6-0.6-0.9-0.8c-0.2-0.2-0.5-0.4-0.8-0.6c-0.2-0.1-0.3-0.2-0.5-0.3c0,0-0.1-0.1-0.1-0.1c0,0-0.1-0.1-0.1-0.1
	c-0.1-0.1-0.1-0.1-0.2-0.1c-0.2-0.2-0.5-0.3-0.8-0.5c-0.1,0-0.1-0.1-0.2-0.1c0,0-0.1,0-0.1-0.1c-0.2-0.2-0.5-0.3-0.7-0.4
	c-0.2-0.1-0.3-0.2-0.5-0.2c-0.3-0.2-0.6-0.3-0.9-0.4l0,0c-0.2-0.1-0.5-0.2-0.7-0.3c-0.6-0.3-1.2-0.5-1.8-0.7
	c-0.7-0.2-1.4-0.5-2.2-0.7c-0.7-0.2-1.4-0.3-2.1-0.4c-0.4-0.1-0.7-0.1-1.1-0.1c-0.8-0.1-1.6-0.1-2.4-0.1c-3,0-6.1,0.6-8.9,1.7
	L466.7,87.7z M445.1,87.7l-15.7,64.6l-1.1,4.6c-2.6-1.2-4.9-2.9-6.7-5.1c-3.9-4.1-9.3-9.5-19.3-9.5c-10.1,0-15.6,5.7-19.3,9.5
	c-3.7,3.8-5.9,5.7-10.6,5.7c-4.7,0-6.6-1.7-10.5-5.7c-3.9-4.1-9.3-9.5-19.3-9.5c-10.1,0-15.6,5.7-19.3,9.5
	c-3.7,3.8-5.9,5.7-10.5,5.7c-4.7,0-6.6-1.7-10.5-5.7c-3.9-4.1-9.3-9.5-19.3-9.5c-10.1,0-15.4,5.5-19.3,9.5c-1.6,1.9-3.6,3.5-5.7,4.7
	l-6.3-68.8H445.1z M252.2,285c3.3-2.6,6.6-5.1,9.9-7.2c1.9,1.5,4.4,3.5,7.2,6c0.3,0.3,0.7,0.6,1,0.9c2.7,2.3,5.3,4.7,7.9,7.1
	c0,0,0,0,0,0c2.9,2.7,5.8,5.5,8.6,8.3c9.4,9.4,18.2,19.4,26.3,30c0.2,0.2,0.4,0.5,0.6,0.7c1.5,2,3,4,4.5,6.1
	c0.1,0.2,0.3,0.4,0.4,0.6c1.5,2.1,2.9,4.4,4.3,6.7c-3,1.6-6,3.1-8.9,4.7c-5.6,3-10.8,5.7-14.9,8c-9.2-11.4-18.6-22.9-26.1-32.2
	c-2.9-3.6-5.4-6.8-7.6-9.6c-1.2-1.5-3-2.6-4.9-3c-1.9-0.4-4-0.1-5.7,0.8h-0.1l-8.1,4.4c-2.5-3.1-5.7-6.9-9.6-11.1
	c-1.3-1.4-2.7-2.8-4.1-4.3C237.8,297.3,244.7,290.9,252.2,285z M285.9,367.7c1.2,1.5,2.5,3.1,3.8,4.7c0.5,0.6,1,1.3,1.6,2
	c0.1,0.1,0.1,0.2,0.2,0.2c1.2,1.5,2.5,3.1,3.8,4.6c2.2,2.7,4.4,5.4,6.4,7.9c0.3,0.4,0.6,0.7,1,1.1c0.3,0.4,0.6,0.8,0.9,1.2
	c0,0,0,0,0,0.1c0.1,0.1,0.2,0.2,0.3,0.3c0.5,0.6,1,1.3,1.5,1.9c0.3,0.3,0.6,0.7,0.8,1c0.3,0.4,0.6,0.7,0.8,1c0,0,0,0,0,0
	c0.3,0.3,0.5,0.6,0.8,0.9c0.3,0.3,0.5,0.6,0.7,0.9c0.1,0.1,0.2,0.2,0.3,0.4c0.4,0.5,0.7,0.9,1.1,1.3c1,1.2,1.8,2.2,2.4,2.9
	c0.2,0.2,0.3,0.4,0.5,0.6h-94.9l-32.3-31.5l70.9-38c5.4,6.8,12.2,15.2,19.4,24c0,0,0.1,0.1,0.1,0.1c0.1,0.1,0.2,0.2,0.2,0.3
	c0.2,0.3,0.5,0.6,0.8,1c0.9,1.1,2.1,2.6,3.5,4.4c0.2,0.3,0.5,0.6,0.7,0.9c0.8,0.9,1.6,2,2.5,3c0.3,0.4,0.6,0.7,0.9,1.1c0,0,0,0,0,0
	C285,366.7,285.4,367.2,285.9,367.7z M310.1,370.5c6.4-3.5,39.8-20.5,41.8-21.4c2.7,3.7,6.4,8.9,10.8,14.8c0.4,0.5,0.8,1.1,1.2,1.7
	c0,0.1,0.1,0.1,0.1,0.1c0.4,0.6,0.8,1.2,1.3,1.8c0.7,1,1.5,2.1,2.3,3.2c0,0,0,0,0,0c0,0,0,0,0,0c0.9,1.2,1.7,2.4,2.6,3.6
	c0.9,1.2,1.7,2.4,2.6,3.6c0.4,0.6,0.9,1.2,1.3,1.8c0.4,0.6,0.9,1.2,1.3,1.8c0.9,1.2,1.7,2.5,2.6,3.7c0.4,0.6,0.9,1.2,1.3,1.8
	c0,0,0,0,0,0.1c0.4,0.6,0.8,1.2,1.2,1.7c0,0,0.1,0.1,0.1,0.1c0.8,1.2,1.7,2.3,2.5,3.5c0.1,0.1,0.2,0.2,0.2,0.3
	c0.5,0.7,1,1.4,1.5,2.1c0.6,0.9,1.3,1.9,1.9,2.8c0.1,0,0.1,0.1,0.1,0.1c0.7,1.1,1.5,2.2,2.2,3.2l-18.1,0h-36.1L310.1,370.5z
	 M197.4,292.8c2,1.5,4,3.1,5.9,4.7c1.2,1,2.4,2,3.5,3c1.8,1.5,3.6,3.1,5.3,4.8c0.6,0.5,1.2,1.1,1.7,1.6c1.5,1.5,3.1,3,4.6,4.5
	c0.3,0.3,0.6,0.6,0.9,0.9c1,1,2,2.1,3.1,3.2c2,2.1,4,4.3,5.9,6.5c0,0,0,0,0,0.1c1,1.1,1.9,2.2,2.9,3.4l-58.6,31.4l-19.1-18.7
	L197.4,292.8z M133,342l32.3,31.5l28,27.5h-118L133,342z M71.2,486.4c-0.1-0.3-0.3-0.6-0.4-1c-0.3-0.6-0.5-1.2-0.8-1.8
	c-0.3-0.6-0.6-1.2-0.8-1.8c0,0,0,0,0,0c-0.1-0.2-0.2-0.5-0.3-0.7c-0.4-0.8-0.7-1.7-1-2.5c-0.1-0.1-0.1-0.3-0.2-0.4c0,0,0,0,0,0
	c0-0.1-0.1-0.2-0.1-0.3c-0.1-0.2-0.2-0.5-0.3-0.7c-0.2-0.4-0.3-0.8-0.4-1.2c-0.1-0.1-0.1-0.2-0.1-0.4c-0.3-0.9-0.6-1.8-1-2.6
	c-0.2-0.6-0.5-1.3-0.7-1.9c-0.1-0.2-0.2-0.4-0.2-0.7c-0.3-0.9-0.6-1.7-0.9-2.6c-0.1-0.3-0.2-0.7-0.3-1c-0.2-0.5-0.3-0.9-0.4-1.4v0
	c0,0,0,0,0,0c0,0,0-0.1,0-0.1c0-0.1-0.1-0.1-0.1-0.2c0-0.1-0.1-0.1-0.1-0.2c0,0,0,0,0,0s0,0,0,0c-0.1-0.2-0.1-0.4-0.2-0.6
	c0,0,0-0.1,0-0.1h0c0-0.1-0.1-0.3-0.1-0.4c-0.1-0.3-0.2-0.7-0.3-1c0,0,0,0,0,0c0,0,0,0,0,0c0,0,0-0.1,0-0.1v0c0,0,0,0,0,0
	c0,0,0-0.1,0-0.1c0,0,0,0,0-0.1c0-0.1,0-0.1-0.1-0.2c0,0,0-0.1,0-0.1c0-0.1,0-0.1,0-0.1c0-0.1-0.1-0.2-0.1-0.3c0-0.1,0-0.1-0.1-0.2
	c0-0.1,0-0.1-0.1-0.2c0,0,0-0.1,0-0.1c-0.1-0.2-0.1-0.3-0.1-0.5c0,0,0,0,0,0c-0.2-1-0.5-1.9-0.7-2.9c0-0.1-0.1-0.3-0.1-0.4
	c0-0.1-0.1-0.3-0.1-0.4c-0.1-0.5-0.2-1-0.3-1.6c-0.1-0.5-0.2-1.1-0.3-1.6c-0.1-0.7-0.3-1.4-0.4-2.2c0-0.1,0-0.2,0-0.2
	c-0.1-0.7-0.2-1.4-0.4-2.2c0,0,0,0,0-0.1c-0.1-0.5-0.2-1-0.2-1.6c0-0.1-0.1-0.3-0.1-0.4c0-0.1,0-0.1,0-0.1c-0.1-0.8-0.2-1.6-0.3-2.4
	c0,0,0,0,0-0.1c-0.1-1-0.2-2-0.3-2.9v-0.1c-0.3-3.7-0.3-7.3-0.1-10.6v-0.1c0.1-0.7,0.1-1.4,0.2-2.2c0.2-1.9,0.5-3.6,0.8-5.4
	c0-0.1,0-0.2,0.1-0.3c0.2-0.9,0.4-1.7,0.6-2.5c0.1-0.4,0.2-0.8,0.4-1.2c0.1-0.4,0.2-0.7,0.3-1.1h342.7l0.1,0.2
	c0.5,1.4,0.9,2.9,1.2,4.3c0.2,0.7,0.3,1.4,0.4,2.1c0.1,0.6,0.2,1.2,0.3,1.7c0.1,0.6,0.2,1.3,0.3,2c0.1,0.5,0.1,0.9,0.2,1.4
	c0.1,0.5,0.1,0.9,0.1,1.4c0,0.4,0.1,0.7,0.1,1.1c0,0.5,0.1,1,0.1,1.4c0,0.8,0.1,1.7,0.1,2.5c0,1.6-0.1,3.3-0.2,5
	c0,0.6-0.1,1.3-0.1,1.9c0,0.2-0.1,0.4-0.1,0.6c-0.1,0.9-0.2,1.8-0.3,2.8c-0.1,0.5-0.1,0.9-0.2,1.4c-0.1,0.5-0.1,0.9-0.2,1.4
	c-0.1,0.9-0.3,1.9-0.5,2.8c0,0.1,0,0.3-0.1,0.4c0,0.1,0,0.1,0,0.2c-0.1,0.4-0.2,0.7-0.2,1.1c-0.2,1-0.4,2-0.7,3l0,0
	c-1.4,5.6-3.1,11-5.1,16.4c-0.5,1.3-1,2.7-1.5,4c-0.5,1.3-1.1,2.6-1.6,3.9c0,0,0,0,0,0c0,0,0,0,0,0c0,0,0,0,0,0.1
	c-0.3,0.6-0.6,1.3-0.8,1.9c-0.4,0.8-0.7,1.5-1,2.3c-0.1,0.2-0.2,0.4-0.3,0.6c-0.5,1-0.9,1.9-1.4,2.9H72.5
	C72.1,488.2,71.6,487.3,71.2,486.4z M333.1,565.8H131.4c-0.6-0.5-1.2-1.1-1.8-1.6c-0.6-0.6-1.2-1.1-1.8-1.6h0
	c-1.2-1.1-2.3-2.2-3.5-3.3c-1.2-1.1-2.3-2.2-3.5-3.4c-1.9-1.9-3.7-3.7-5.5-5.7c-0.7-0.7-1.3-1.4-2-2.1l0,0c0,0,0,0,0,0
	c0,0,0,0-0.1-0.1c-0.1-0.1-0.1-0.1-0.2-0.2c-0.1-0.1-0.2-0.3-0.4-0.4c0,0,0,0,0,0c-0.1-0.1-0.2-0.3-0.4-0.4c-0.3-0.3-0.6-0.7-0.9-1
	c0,0,0,0,0,0c0,0-0.1,0-0.1-0.1c-0.1-0.1-0.2-0.2-0.3-0.3c0,0,0,0-0.1-0.1c0,0,0,0,0,0c0,0,0,0,0,0c0,0,0,0,0-0.1
	c-0.1,0-0.1-0.1-0.1-0.1c0-0.1-0.1-0.1-0.1-0.1c0,0-0.1,0-0.1-0.1l0,0c0,0,0-0.1-0.1-0.1h0c0,0,0,0,0,0c0,0,0,0,0,0s0,0,0,0
	c0,0-0.1-0.1-0.1-0.1c0,0-0.1,0-0.1-0.1c0,0,0,0,0-0.1c-0.1-0.1-0.1-0.1-0.2-0.2c-0.1-0.1-0.1-0.1-0.2-0.2c-0.1-0.1-0.2-0.3-0.4-0.4
	c0,0,0,0,0-0.1c-0.5-0.6-1-1.2-1.5-1.8c-0.5-0.6-1-1.2-1.5-1.8c-0.9-1.1-1.9-2.2-2.8-3.3c-2.2-2.6-4.2-5.2-6.3-7.9
	c-0.5-0.6-0.9-1.2-1.4-1.8c-0.2-0.3-0.5-0.6-0.7-0.9c0,0-0.1-0.1-0.1-0.1c-0.1-0.1-0.2-0.2-0.2-0.4c-0.6-0.8-1.2-1.6-1.8-2.5
	c-0.1-0.2-0.2-0.3-0.3-0.4c0,0-0.1-0.1-0.1-0.1c0,0,0-0.1-0.1-0.1c0,0,0,0,0-0.1c0,0,0,0,0,0c-0.2-0.2-0.3-0.5-0.5-0.7
	c0,0-0.1-0.1-0.1-0.1c-0.6-0.8-1.2-1.7-1.8-2.5c-0.3-0.5-0.6-0.9-1-1.4c-0.2-0.3-0.4-0.6-0.6-0.9c-0.1-0.2-0.3-0.4-0.4-0.6
	c-0.2-0.3-0.4-0.7-0.7-1c0,0,0,0,0,0c-0.1-0.1-0.1-0.1-0.1-0.2c-1-1.5-2-3-3-4.6c-0.9-1.5-1.9-3-2.8-4.5h300.5l-0.9,1.5
	c-2.6,4.1-5.3,8.3-8.2,12.3C361.5,536.8,348,552.1,333.1,565.8z M479.9,565.8H357.7c13.5-14,25.6-29.3,36.2-45.6h90.2L479.9,565.8z
	 M485.2,507.7H454c0-0.4-0.1-0.7-0.2-1.1c-0.1-0.2-0.1-0.4-0.2-0.6c-0.1-0.1-0.1-0.2-0.2-0.4c0-0.1,0-0.1-0.1-0.2
	c-0.1-0.1-0.1-0.3-0.2-0.4c-0.1-0.2-0.2-0.3-0.3-0.5c-0.2-0.3-0.5-0.6-0.8-0.9c-1.2-1.1-2.7-1.7-4.2-1.7c-1.6,0-3.1,0.6-4.2,1.7
	c-0.4,0.4-0.8,0.9-1.1,1.4c-0.2,0.3-0.4,0.6-0.5,1c0,0,0,0,0,0.1c-0.2,0.5-0.3,1.1-0.4,1.6h-25.1c-0.1-0.4-0.1-0.7-0.2-1
	c-0.1-0.2-0.1-0.3-0.2-0.4c0,0,0,0,0,0c-0.1-0.2-0.1-0.3-0.2-0.5c0-0.1,0-0.1-0.1-0.2c-0.1-0.1-0.1-0.3-0.2-0.4
	c-0.3-0.5-0.7-1-1.1-1.4c-1.1-1-2.6-1.6-4.1-1.6c-1.5,0-3,0.6-4.1,1.6c-0.4,0.4-0.8,0.9-1.1,1.4c-0.1,0.1-0.1,0.2-0.2,0.4
	c-0.1,0.1-0.1,0.2-0.2,0.4c-0.1,0.2-0.2,0.5-0.3,0.7c-0.1,0.2-0.1,0.4-0.1,0.5c0,0.2-0.1,0.4-0.1,0.6h-2.5l0.9-1.5
	c1.8-3.5,3.7-7,5.4-10.5c1.1-2.2,2.1-4.4,3.1-6.6c11.8-26.6,15.4-50.7,10.7-70.6c0-0.1,0-0.1-0.1-0.2c-0.1-0.6-0.3-1.1-0.4-1.7
	c-0.1-0.3-0.2-0.6-0.3-0.9c-0.1-0.3-0.1-0.5-0.2-0.8c-0.2-0.7-0.4-1.4-0.6-2c-0.2-0.6-0.4-1.2-0.6-1.7c0,0,0-0.1,0-0.1
	c-0.2-0.6-0.4-1.1-0.6-1.7c0,0,0-0.1,0-0.1c-0.5-1.1-0.9-2.3-1.5-3.4c0-0.1-0.1-0.1-0.1-0.2c-0.1-0.3-0.3-0.6-0.5-0.9
	c-0.2-0.3-0.4-0.6-0.7-0.9v0c-0.2-1.5-1-2.8-2.1-3.7c-1.1-0.9-2.5-1.5-4-1.5c-0.5,0-1,0.1-1.5,0.2h0v0c-1.2-1.8-2.5-3.8-3.9-5.8
	c-0.3-0.5-0.7-1-1-1.5c0,0,0-0.1,0-0.1c-0.3-0.5-0.7-1-1-1.5c0,0,0-0.1,0-0.1c-0.4-0.5-0.7-1-1.1-1.5c-0.4-0.6-0.8-1.1-1.2-1.7
	c-0.4-0.5-0.7-1-1.1-1.6c0,0,0-0.1,0-0.1c-0.4-0.6-0.7-1.1-1.1-1.6c0,0,0-0.1,0-0.1c-0.4-0.6-0.8-1.1-1.2-1.6
	c-1.2-1.7-2.4-3.5-3.7-5.2c-0.4-0.6-0.8-1.2-1.2-1.7c-0.8-1.2-1.6-2.3-2.5-3.5c-0.4-0.6-0.8-1.2-1.2-1.7c-0.4-0.6-0.8-1.2-1.2-1.7
	c-0.4-0.6-0.8-1.2-1.2-1.7c-0.4-0.6-0.8-1.1-1.2-1.7c-2-2.8-4-5.7-6-8.3c-2.3-3.2-4.5-6.2-6.5-8.9l0.1-45.5c0-0.7,0-1.4-0.2-2
	c0-0.1-0.1-0.3-0.1-0.4c0-0.1,0-0.1-0.1-0.2c-0.1-0.2-0.1-0.3-0.2-0.5c0,0,0-0.1,0-0.1c-0.1-0.2-0.2-0.3-0.3-0.5
	c-0.1-0.2-0.2-0.3-0.3-0.5c-0.1-0.2-0.3-0.4-0.4-0.5c0,0,0-0.1-0.1-0.1c-0.6-0.6-1.3-1.1-2-1.4c-0.8-0.3-1.6-0.5-2.5-0.5
	c-0.8,0-1.7,0.2-2.4,0.5c-0.8,0.3-1.5,0.8-2,1.4c-0.4,0.5-0.8,1-1,1.5c-0.1,0.2-0.2,0.4-0.2,0.6c-0.2,0.5-0.3,1-0.4,1.5
	c0,0.3,0,0.6,0,1l-0.1,29.6c-1.2-0.7-2.5-1.2-3.9-1.3c-1.4-0.1-2.8,0.1-4.1,0.7c-3.9,1.7-8.3,3.7-12.9,5.9c-2.1-3.3-4.3-6.6-6.6-9.8
	c-2.2-3.2-4.6-6.3-6.9-9.3v0l-0.7-15.9c0-0.4-0.1-0.9-0.2-1.3c-0.1-0.2-0.1-0.4-0.2-0.6c0,0,0-0.1,0-0.1c-0.1-0.2-0.1-0.3-0.2-0.5
	c0,0,0-0.1,0-0.1c-0.1-0.1-0.1-0.3-0.2-0.4c-0.1-0.2-0.2-0.4-0.4-0.7c-0.2-0.3-0.5-0.6-0.8-0.9c-1.2-1.1-2.8-1.8-4.4-1.7
	c-1.7,0-3.2,0.7-4.3,1.9c-0.4,0.4-0.8,0.9-1,1.5c-0.3,0.5-0.4,1-0.6,1.6c0,0.2-0.1,0.4-0.1,0.6c0,0,0,0,0,0c0,0.2,0,0.4,0,0.6
	c-3.3-3.7-6.7-7.4-10.2-10.9c-1.7-1.8-3.5-3.6-5.3-5.3c-9-8.8-18.5-17.1-28.5-24.8l-0.7-0.4l-8.3-90.6c6.4-1.5,10.4-5.6,13.4-8.8
	c3.7-3.8,5.9-5.7,10.5-5.7c2.9,0,4.8,0.7,6.7,2.1c0.6,0.5,1.2,1,1.8,1.6c0.2,0.2,0.4,0.4,0.6,0.6c0.2,0.2,0.4,0.4,0.7,0.7
	c0.2,0.2,0.4,0.4,0.6,0.6c0,0,0.1,0.1,0.1,0.1c0.2,0.2,0.4,0.4,0.7,0.7c0,0,0.1,0.1,0.1,0.1c0.5,0.5,1,1,1.5,1.5l0.1,0.1
	c0.2,0.2,0.5,0.4,0.7,0.7l0,0c3.6,3.3,8.6,6.4,16.2,6.4c10.1,0,15.6-5.7,19.3-9.4c3.7-3.8,5.9-5.7,10.5-5.7c2.9,0,4.8,0.7,6.7,2.1
	c0.6,0.5,1.2,1,1.8,1.6c0.2,0.2,0.4,0.4,0.6,0.6c0.2,0.2,0.4,0.4,0.7,0.7c0.2,0.2,0.4,0.4,0.6,0.6c0.5,0.5,1,1,1.6,1.6
	c3.8,3.8,9,8,17.9,8c10,0,15.6-5.7,19.3-9.4c3.7-3.8,5.9-5.7,10.5-5.7c2.9,0,4.8,0.8,6.8,2.3c1,0.7,1.9,1.7,3.1,2.8
	c0.2,0.2,0.4,0.4,0.6,0.6c0.4,0.5,0.9,1,1.4,1.5c0.4,0.4,0.9,0.9,1.3,1.2c0.1,0.1,0.3,0.2,0.4,0.3c0.4,0.3,0.7,0.6,1.1,0.9
	c0,0,0,0,0,0c0.1,0.1,0.1,0.1,0.2,0.2c2.5,1.9,5.4,3.5,8.4,4.5c2.1,0.6,4.3,0.9,6.5,0.9c1.3,0,2.6-0.1,3.9-0.3
	c7.6-1.2,12.1-5.7,15.5-9.2c3.7-3.8,5.9-5.7,10.5-5.7c2.9,0,4.8,0.8,6.8,2.3c0.3,0.3,0.7,0.6,1,0.9c0,0,0,0,0,0c0,0,0.1,0.1,0.1,0.1
	c0.2,0.1,0.3,0.3,0.5,0.4c0,0,0.1,0.1,0.1,0.1c0.2,0.2,0.4,0.4,0.6,0.6c0.2,0.2,0.4,0.4,0.6,0.6c0.2,0.2,0.4,0.4,0.6,0.6
	c0.4,0.4,0.8,0.9,1.2,1.3c2.9,3,6.4,5.3,10.2,6.9c2.6,0.9,5.3,1.4,8,1.4c0.9,0,1.7-0.1,2.5-0.1c8.5-0.8,13.3-5.7,16.9-9.3l-0.1-0.1
	c1.8-2.2,4-3.9,6.5-5.1L485.2,507.7z M518.9,142.5c-8.3,0.9-13,5.7-16.7,9.3c-0.3,0.4-0.7,0.8-1.1,1.1c-1.1,1.1-2.3,2.1-3.5,3.1
	l7.2-29.9l9.4-38.5l9.7,0L518.9,142.5z M462.2,191.9c-1.6-0.1-3.2,0.5-4.4,1.6c-1.2,1.1-1.9,2.7-2,4.3l-2.4,51.7
	c-0.1,1.6,0.5,3.2,1.6,4.4c1.1,1.2,2.6,1.9,4.3,2h0.3c1.6,0,3.1-0.6,4.3-1.7c1.1-1.1,1.8-2.6,1.9-4.2l2.4-51.7
	c0.1-1.6-0.5-3.2-1.6-4.4C465.4,192.7,463.8,192,462.2,191.9z M461.8,297.3c-0.6-0.6-1.2-1.1-2-1.5c-0.7-0.4-1.6-0.6-2.4-0.6
	c-0.8,0-1.7,0.1-2.4,0.4c-0.8,0.3-1.5,0.7-2.1,1.3c-0.6,0.6-1.1,1.2-1.4,2c-0.3,0.8-0.5,1.6-0.5,2.4l-2.4,51.7
	c0,0.8,0.1,1.6,0.4,2.4c0.3,0.8,0.7,1.5,1.2,2.1c0.6,0.6,1.2,1.1,1.9,1.4c0.7,0.3,1.5,0.5,2.3,0.6h0.3c1.6,0,3.1-0.6,4.3-1.7
	c1.2-1.1,1.8-2.6,1.9-4.2l2.3-51.7c0.1-0.8,0-1.7-0.3-2.4C462.8,298.6,462.4,297.9,461.8,297.3z M457.1,400.7
	c-0.6-0.6-1.2-1.1-2-1.5c-0.7-0.4-1.5-0.6-2.4-0.6c-0.8,0-1.6,0.1-2.4,0.4c-0.8,0.3-1.5,0.7-2.1,1.3c-0.6,0.6-1.1,1.2-1.4,2
	c-0.3,0.8-0.5,1.6-0.5,2.4l-2.4,51.7c0,0.8,0.1,1.6,0.4,2.4c0.3,0.8,0.7,1.5,1.2,2.1c0.6,0.6,1.2,1.1,1.9,1.4
	c0.7,0.4,1.5,0.6,2.3,0.6h0.3c1.6,0,3.1-0.6,4.3-1.7c1.1-1.1,1.8-2.6,1.9-4.2l2.4-51.7c0.1-0.8,0-1.7-0.3-2.4
	C458,402.1,457.6,401.3,457.1,400.7z M415.4,299c-0.3-0.8-0.7-1.5-1.3-2.1c-0.6-0.6-1.3-1.1-2-1.4c-0.8-0.3-1.6-0.5-2.4-0.5
	c-0.8,0-1.7,0.2-2.4,0.5c-0.8,0.3-1.5,0.8-2,1.4c-0.6,0.6-1,1.3-1.3,2.1c-0.3,0.8-0.4,1.6-0.4,2.5l0.1,51.8h0c0,0.8,0.1,1.6,0.4,2.4
	c0.3,0.7,0.8,1.4,1.3,2c0.6,0.6,1.3,1,2,1.3c0.7,0.3,1.5,0.5,2.4,0.5h0.3c1.6-0.1,3.1-0.8,4.2-1.9c1.1-1.1,1.7-2.7,1.7-4.3
	l-0.1-51.8C415.8,300.7,415.7,299.8,415.4,299z M405.1,254.1c0.6,0.6,1.3,1,2,1.3c0.7,0.3,1.5,0.5,2.4,0.5h0.3
	c1.6-0.1,3.1-0.8,4.2-1.9c1.1-1.1,1.7-2.7,1.7-4.3l-0.1-51.8c0-1.6-0.7-3.2-1.8-4.4c-1.2-1.2-2.7-1.8-4.4-1.8
	c-1.7,0-3.2,0.6-4.4,1.8c-1.2,1.2-1.8,2.7-1.8,4.4l0.1,51.8c0,0.8,0.2,1.6,0.5,2.4C404.1,252.9,404.5,253.5,405.1,254.1z
	 M371.9,197.3c0-0.2,0-0.5-0.1-0.7c-0.2-1.2-0.8-2.3-1.7-3.2c-1.2-1.2-2.7-1.8-4.4-1.8c-1.6,0-3.2,0.6-4.4,1.8
	c-0.9,0.9-1.5,2-1.7,3.2c-0.1,0.2-0.1,0.5-0.1,0.7v0c0,0.1,0,0.3,0,0.4v0.1l-0.1,51.7v0.2c0,0.2,0,0.3,0,0.5c0,0.2,0,0.3,0.1,0.5
	c0,0.1,0,0.1,0.1,0.2c0,0.2,0,0.4,0.1,0.5c0.1,0.4,0.2,0.7,0.4,1c0.2,0.5,0.6,1,1,1.4v0c1.1,1.2,2.6,1.8,4.2,1.9h0.4
	c0.2,0,0.5,0,0.7-0.1c0.6,0,1.2-0.2,1.7-0.4c0.7-0.3,1.4-0.7,2-1.3c0.6-0.6,1-1.2,1.3-2c0.3-0.7,0.5-1.5,0.5-2.4v-52
	C371.9,197.7,371.9,197.5,371.9,197.3L371.9,197.3z M319,196c-0.1-0.1-0.1-0.3-0.2-0.4c-0.3-0.8-0.9-1.5-1.5-2
	c-1.2-1.1-2.8-1.6-4.4-1.5c-1.6,0.1-3.1,0.8-4.2,1.9c-0.3,0.3-0.5,0.6-0.7,1c-0.4,0.7-0.7,1.4-0.8,2.1c0,0.2-0.1,0.5-0.1,0.7v0.1
	c0,0.2-0.1,0.3-0.1,0.5l2.4,51.7c0,0.2,0,0.4,0.1,0.6c0.1,0.4,0.1,0.8,0.3,1.2c0.1,0.2,0.2,0.4,0.3,0.6c0,0.1,0.1,0.1,0.1,0.2
	c0.3,0.6,0.7,1.2,1.2,1.7c0.4,0.4,0.9,0.8,1.5,1c0.2,0.1,0.4,0.2,0.6,0.2c0.2,0.1,0.3,0.1,0.5,0.2c0.2,0.1,0.4,0.1,0.6,0.1
	c0.2,0,0.4,0.1,0.6,0.1c0.2,0,0.4,0.1,0.7,0.1h0.3l0,0l0,0c0.2,0,0.4,0,0.6-0.1c0.6-0.1,1.2-0.2,1.8-0.5c0.2-0.1,0.4-0.2,0.5-0.3
	c0.5-0.3,1-0.7,1.4-1.1c0.6-0.6,1-1.3,1.3-2.1c0.3-0.8,0.4-1.6,0.4-2.4l-2.4-51.7C319.4,197.2,319.3,196.6,319,196z M406.2,441.5
	c0.1-1.7,0.2-3.3,0.2-5C406.4,438.1,406.4,439.8,406.2,441.5z M406.2,441.5c0.1-1.7,0.2-3.3,0.2-5
	C406.4,438.1,406.4,439.8,406.2,441.5z M406.2,441.5c0.1-1.7,0.2-3.3,0.2-5C406.4,438.1,406.4,439.8,406.2,441.5z M406.2,441.5
	c0.1-1.7,0.2-3.3,0.2-5C406.4,438.1,406.4,439.8,406.2,441.5z M92.8,522.8L92.8,522.8C92.8,522.8,92.8,522.9,92.8,522.8
	C92.8,522.9,92.8,522.8,92.8,522.8z"/>
</svg>
